TITLE ""
FILE "1Q_t_1079-1088.mp3" MP3
  TRACK 01 AUDIO
    TITLE "1Q_t_1079-1088_01"
    INDEX 01 00:00:00
  TRACK 02 AUDIO
    TITLE "1Q_t_1079-1088_02"
    INDEX 01 00:01:00
  TRACK 03 AUDIO
    TITLE "1Q_t_1079-1088_03"
    INDEX 01 00:01:10
  TRACK 04 AUDIO
    TITLE "1Q_t_1079-1088_04"
    INDEX 01 00:03:46
  TRACK 05 AUDIO
    TITLE "1Q_t_1079-1088_05"
    INDEX 01 00:03:52
  TRACK 06 AUDIO
    TITLE "1Q_t_1079-1088_06"
    INDEX 01 00:08:27
  TRACK 07 AUDIO
    TITLE "1Q_t_1079-1088_07"
    INDEX 01 00:08:74
  TRACK 08 AUDIO
    TITLE "1Q_t_1079-1088_08"
    INDEX 01 00:10:22
  TRACK 09 AUDIO
    TITLE "1Q_t_1079-1088_09"
    INDEX 01 00:10:30
  TRACK 10 AUDIO
    TITLE "1Q_t_1079-1088_10"
    INDEX 01 00:12:68
  TRACK 11 AUDIO
    TITLE "1Q_t_1079-1088_11"
    INDEX 01 00:13:01
  TRACK 12 AUDIO
    TITLE "1Q_t_1079-1088_12"
    INDEX 01 00:16:49
  TRACK 13 AUDIO
    TITLE "1Q_t_1079-1088_13"
    INDEX 01 00:17:19
  TRACK 14 AUDIO
    TITLE "1Q_t_1079-1088_14"
    INDEX 01 00:18:53
  TRACK 15 AUDIO
    TITLE "1Q_t_1079-1088_15"
    INDEX 01 00:18:65
  TRACK 16 AUDIO
    TITLE "1Q_t_1079-1088_16"
    INDEX 01 00:21:40
  TRACK 17 AUDIO
    TITLE "1Q_t_1079-1088_17"
    INDEX 01 00:21:46
  TRACK 18 AUDIO
    TITLE "1Q_t_1079-1088_18"
    INDEX 01 00:27:58
  TRACK 19 AUDIO
    TITLE "1Q_t_1079-1088_19"
    INDEX 01 00:28:28
  TRACK 20 AUDIO
    TITLE "1Q_t_1079-1088_20"
    INDEX 01 00:29:41
  TRACK 21 AUDIO
    TITLE "1Q_t_1079-1088_21"
    INDEX 01 00:29:49
  TRACK 22 AUDIO
    TITLE "1Q_t_1079-1088_22"
    INDEX 01 00:32:69
  TRACK 23 AUDIO
    TITLE "1Q_t_1079-1088_23"
    INDEX 01 00:33:00
  TRACK 24 AUDIO
    TITLE "1Q_t_1079-1088_24"
    INDEX 01 00:37:11
  TRACK 25 AUDIO
    TITLE "1Q_t_1079-1088_25"
    INDEX 01 00:37:57
  TRACK 26 AUDIO
    TITLE "1Q_t_1079-1088_26"
    INDEX 01 00:38:68
  TRACK 27 AUDIO
    TITLE "1Q_t_1079-1088_27"
    INDEX 01 00:39:01
  TRACK 28 AUDIO
    TITLE "1Q_t_1079-1088_28"
    INDEX 01 00:41:74
  TRACK 29 AUDIO
    TITLE "1Q_t_1079-1088_29"
    INDEX 01 00:42:03
  TRACK 30 AUDIO
    TITLE "1Q_t_1079-1088_30"
    INDEX 01 00:46:59
  TRACK 31 AUDIO
    TITLE "1Q_t_1079-1088_31"
    INDEX 01 00:47:29
  TRACK 32 AUDIO
    TITLE "1Q_t_1079-1088_32"
    INDEX 01 00:48:37
  TRACK 33 AUDIO
    TITLE "1Q_t_1079-1088_33"
    INDEX 01 00:48:43
  TRACK 34 AUDIO
    TITLE "1Q_t_1079-1088_34"
    INDEX 01 00:49:66
  TRACK 35 AUDIO
    TITLE "1Q_t_1079-1088_35"
    INDEX 01 00:49:73
  TRACK 36 AUDIO
    TITLE "1Q_t_1079-1088_36"
    INDEX 01 00:54:08
  TRACK 37 AUDIO
    TITLE "1Q_t_1079-1088_37"
    INDEX 01 00:54:55
  TRACK 38 AUDIO
    TITLE "1Q_t_1079-1088_38"
    INDEX 01 00:56:03
  TRACK 39 AUDIO
    TITLE "1Q_t_1079-1088_39"
    INDEX 01 00:56:13
  TRACK 40 AUDIO
    TITLE "1Q_t_1079-1088_40"
    INDEX 01 00:57:18
  TRACK 41 AUDIO
    TITLE "1Q_t_1079-1088_41"
    INDEX 01 00:57:26
  TRACK 42 AUDIO
    TITLE "1Q_t_1079-1088_42"
    INDEX 01 01:02:25
  TRACK 43 AUDIO
    TITLE "1Q_t_1079-1088_43"
    INDEX 01 01:02:70
  TRACK 44 AUDIO
    TITLE "1Q_t_1079-1088_44"
    INDEX 01 01:04:16
  TRACK 45 AUDIO
    TITLE "1Q_t_1079-1088_45"
    INDEX 01 01:04:24
  TRACK 46 AUDIO
    TITLE "1Q_t_1079-1088_46"
    INDEX 01 01:06:23
  TRACK 47 AUDIO
    TITLE "1Q_t_1079-1088_47"
    INDEX 01 01:06:29
  TRACK 48 AUDIO
    TITLE "1Q_t_1079-1088_48"
    INDEX 01 01:10:11
  TRACK 49 AUDIO
    TITLE "1Q_t_1079-1088_49"
    INDEX 01 01:10:54
  TRACK 50 AUDIO
    TITLE "1Q_t_1079-1088_50"
    INDEX 01 01:12:12
  TRACK 51 AUDIO
    TITLE "1Q_t_1079-1088_51"
    INDEX 01 01:12:18
  TRACK 52 AUDIO
    TITLE "1Q_t_1079-1088_52"
    INDEX 01 01:16:49
  TRACK 53 AUDIO
    TITLE "1Q_t_1079-1088_53"
    INDEX 01 01:16:57
  TRACK 54 AUDIO
    TITLE "1Q_t_1079-1088_54"
    INDEX 01 01:22:30
  TRACK 55 AUDIO
    TITLE "1Q_t_1079-1088_55"
    INDEX 01 01:23:00
  TRACK 56 AUDIO
    TITLE "1Q_t_1079-1088_56"
    INDEX 01 01:24:11
  TRACK 57 AUDIO
    TITLE "1Q_t_1079-1088_57"
    INDEX 01 01:24:21
  TRACK 58 AUDIO
    TITLE "1Q_t_1079-1088_58"
    INDEX 01 01:26:39
  TRACK 59 AUDIO
    TITLE "1Q_t_1079-1088_59"
    INDEX 01 01:26:47
  TRACK 60 AUDIO
    TITLE "1Q_t_1079-1088_60"
    INDEX 01 01:32:22
